<svg xmlns="http://www.w3.org/2000/svg" viewBox="0 0 1702.03 238.24"><defs><style>.cls-1{fill:#28dd8f;}.cls-2{fill:#1a8e84;}</style></defs><g id="Calque_2" data-name="Calque 2"><g id="Calque_1-2" data-name="Calque 1"><rect class="cls-1" x="205.49" y="3.72" width="48.02" height="230.8"/><path class="cls-1" d="M368.6,230.34a94.5,94.5,0,0,1-32.84-22.46,93.43,93.43,0,0,1-20.61-34.39l39.35-17.66q8.67,18.91,24,29.75a57.45,57.45,0,0,0,33.93,10.84q14.55,0,23.39-6.66a21.2,21.2,0,0,0,8.82-17.82q0-16.11-20.44-22.92L379,134.15q-55.46-18.29-55.45-65.37,0-20.45,10.07-35.94T361.78,8.68Q379.9,0,403.45,0q31.29,0,55,15.65a83,83,0,0,1,33.3,42.91l-39,17.66Q446.2,60.11,433.19,51a50.5,50.5,0,0,0-29.74-9.13q-14.56,0-23.55,7a21.87,21.87,0,0,0-9,18.12q0,16.42,21.07,23.54l44.3,14.25q55.44,18,55.45,64.45,0,20.13-10.53,35.78t-29,24.47q-18.42,8.84-42.91,8.83A105.21,105.21,0,0,1,368.6,230.34Z"/><path class="cls-1" d="M600,230.34a94.5,94.5,0,0,1-32.84-22.46,93.55,93.55,0,0,1-20.6-34.39l39.35-17.66q8.67,18.91,24,29.75a57.45,57.45,0,0,0,33.93,10.84q14.55,0,23.39-6.66a21.19,21.19,0,0,0,8.83-17.82q0-16.11-20.45-22.92l-45.23-14.87q-55.47-18.29-55.46-65.37,0-20.45,10.08-35.94T593.2,8.68Q611.3,0,634.86,0q31.29,0,55,15.65a83.1,83.1,0,0,1,33.31,42.91l-39,17.66Q677.61,60.11,664.6,51a50.45,50.45,0,0,0-29.74-9.13q-14.57,0-23.54,7a21.86,21.86,0,0,0-9,18.12q0,16.42,21.07,23.54l44.3,14.25q55.45,18,55.46,64.45,0,20.13-10.54,35.78t-29,24.47q-18.43,8.84-42.91,8.83A105.22,105.22,0,0,1,600,230.34Z"/><path class="cls-2" d="M851.88,229.25a112.76,112.76,0,0,1-37-25.09,115.38,115.38,0,0,1-24.63-37.79A124.48,124.48,0,0,1,781.4,119a127.74,127.74,0,0,1,8.67-47.56,111.1,111.1,0,0,1,61.5-62.58A119.51,119.51,0,0,1,897.88,0Q923,0,943,8.37a104.3,104.3,0,0,1,33.92,22.3,81.07,81.07,0,0,1,19.83,31L954.27,82.1a58.21,58.21,0,0,0-20.6-27.73q-14.71-11-35.79-11-20.45,0-35.93,9.6a64.76,64.76,0,0,0-24,26.49q-8.54,16.88-8.52,39.5t8.52,39.66a64.67,64.67,0,0,0,24,26.64q15.49,9.6,35.93,9.6,21.07,0,35.79-11a58.19,58.19,0,0,0,20.6-27.72l42.44,20.44a81,81,0,0,1-19.83,31A104.33,104.33,0,0,1,943,229.88q-20,8.35-45.08,8.36A116.56,116.56,0,0,1,851.88,229.25Z"/><path class="cls-2" d="M1101.42,226.78a86.48,86.48,0,0,1-33.61-31.45q-12.25-20-12.24-45.38V3.72h48V146.85a50.26,50.26,0,0,0,6,24.63,44.22,44.22,0,0,0,16.58,17.19,46.05,46.05,0,0,0,23.85,6.2q13.64,0,24-6.2a44.54,44.54,0,0,0,16.42-17.19,50.26,50.26,0,0,0,6-24.63V3.72h48V150q0,25.4-12.23,45.38a86.51,86.51,0,0,1-33.62,31.45q-21.37,11.46-48.64,11.46T1101.42,226.78Z"/><path class="cls-2" d="M1443.76,142.51a67.75,67.75,0,0,0,29.12-24.94q10.84-16.56,10.84-40.11,0-24.18-10.53-40.59a66.13,66.13,0,0,0-29-24.79q-18.43-8.35-42.28-8.36h-88.3v230.8h48V150.88h34.08l46.78,83.64h53.9Zm-17.2-42.13q-9.13,8.69-24.32,8.68h-40.58V45.55h40.58q15.18,0,24.32,8.67t9.14,23.24Q1435.7,91.71,1426.56,100.38Z"/><rect class="cls-1" y="3.72" width="140.28" height="52.88"/><polygon class="cls-1" points="0 147.71 0 149.19 0 234.79 52.88 234.79 52.88 149.19 105.01 149.19 105.01 96.31 0 96.31 0 147.71"/><rect class="cls-2" x="1605.45" y="-40.16" width="52.88" height="140.28" transform="translate(1601.91 1661.88) rotate(-90)"/><rect class="cls-2" x="1582.45" y="71.9" width="52.88" height="94.27" transform="translate(1489.86 1727.92) rotate(-90)"/><rect class="cls-2" x="1605.45" y="137.94" width="52.88" height="140.28" transform="translate(1423.81 1839.98) rotate(-90)"/></g></g></svg>